# xmcd
#
# Track frame offsets:
#	300
#	10609
#	23824
#	39023
#	48551
#	65437
#	79347
#	89152
#	98566
#	111401
#	126513
#	136597
#	146854
#	159255
#	170021
#	181002
#	192441
#	204320
#	217263
#	230002
#
# Disc length: 3227 seconds
#
# Revision: 1
# Processed by: cddbd v1.5.2PL0 Copyright (c) Steve Scherf et al.
# Submitted via: audiograbber 1.83.01
#
DISCID=1c0c9714
DTITLE=Ike and Tina Turner - Shake a tail feather [CD 1)
DYEAR=1900
DGENRE=R&B
TTITLE0=Shake A Tail Feather 
TTITLE1=It's Gonna Work Out Fine
TTITLE2=Crazy 'Bout You Baby
TTITLE3=Too Hot To Hold
TTITLE4=I Smell Trouble
TTITLE5=It Sho Ain't Me
TTITLE6=Beauty Is Only Skin Deep
TTITLE7=Ain't Nobody's Business
TTITLE8=Betcha Can't Kiss Me 
TTITLE9=Funky Mule 
TTITLE10=I'm Fed Up
TTITLE11=Make 'Em Wait 
TTITLE12=Poor Little Fool
TTITLE13=You Got What You Wanted
TTITLE14=Freedom Sound
TTITLE15=So Blue Over You
TTITLE16=Cussin', Cryin', and Carryin' On
TTITLE17=A Fool In Love
TTITLE18=I Betta Get To Steppin' 
TTITLE19=Rock Me Baby
EXTD=
EXTT0=
EXTT1=
EXTT2=
EXTT3=
EXTT4=
EXTT5=
EXTT6=
EXTT7=
EXTT8=
EXTT9=
EXTT10=
EXTT11=
EXTT12=
EXTT13=
EXTT14=
EXTT15=
EXTT16=
EXTT17=
EXTT18=
EXTT19=
PLAYORDER=
